<mxfile host="app.diagrams.net" modified="2024-08-26T08:31:34.475Z" agent="Mozilla/5.0 (Windows NT 10.0; Win64; x64) AppleWebKit/537.36 (KHTML, like Gecko) Chrome/128.0.0.0 Safari/537.36 Edg/128.0.0.0" version="24.3.0" etag="EUmbN7Fy_yHSnQHoSKcM" type="github">
  <diagram name="Page-1" id="6a3OTJm4V3tgWiYx5Yjp">
    <mxGraphModel>
      <root>
        <mxCell id="0" />
        <mxCell id="1" parent="0" />
      </root>
    </mxGraphModel>
  </diagram>
</mxfile>
